<svg xmlns="http://www.w3.org/2000/svg" xmlns:xlink="http://www.w3.org/1999/xlink" width="500" zoomAndPan="magnify" viewBox="0 0 375 374.999991" height="500" preserveAspectRatio="xMidYMid meet" version="1.0"><defs><g/><clipPath id="2bde0d43d7"><path d="M 4.945312 80.515625 L 369.699219 80.515625 L 369.699219 304.71875 L 4.945312 304.71875 Z M 4.945312 80.515625 " clip-rule="nonzero"/></clipPath><clipPath id="ae09d6a620"><path d="M 4.957031 80.515625 L 369.6875 80.515625 L 369.6875 304.71875 L 4.957031 304.71875 Z M 4.957031 80.515625 " clip-rule="nonzero"/></clipPath><clipPath id="e9d2575698"><path d="M 30.128906 101.523438 L 197.445312 101.523438 L 197.445312 283.902344 L 30.128906 283.902344 Z M 30.128906 101.523438 " clip-rule="nonzero"/></clipPath></defs><g clip-path="url(#2bde0d43d7)"><path fill="#f7f9fa" d="M 4.957031 80.515625 L 369.6875 80.515625 L 369.6875 304.71875 L 4.957031 304.71875 L 4.957031 80.515625 " fill-opacity="1" fill-rule="nonzero"/></g><g clip-path="url(#ae09d6a620)"><path stroke-linecap="butt" transform="matrix(1.67606, 0, 0, 1.677872, 4.957791, 80.513791)" fill="none" stroke-linejoin="miter" d="M -0.000453423 0.00109322 L 217.611392 0.00109322 L 217.611392 133.624575 L -0.000453423 133.624575 L -0.000453423 0.00109322 " stroke="#080c11" stroke-width="2.689495" stroke-opacity="1" stroke-miterlimit="4"/></g><g clip-path="url(#e9d2575698)"><path fill="#080c11" d="M 30.128906 101.527344 L 197.445312 101.527344 L 197.445312 283.902344 L 30.128906 283.902344 L 30.128906 101.527344 " fill-opacity="1" fill-rule="nonzero"/></g><g fill="#f7f9fa" fill-opacity="1"><g transform="translate(60.032608, 242.2292)"><g><path d="M 103.0625 -48.390625 C 103.0625 -41.296875 101.890625 -34.722656 99.546875 -28.671875 C 97.203125 -22.628906 93.890625 -17.398438 89.609375 -12.984375 C 85.328125 -8.566406 80.171875 -5.117188 74.140625 -2.640625 C 68.117188 -0.160156 61.429688 1.078125 54.078125 1.078125 C 46.753906 1.078125 40.082031 -0.160156 34.0625 -2.640625 C 28.039062 -5.117188 22.875 -8.566406 18.5625 -12.984375 C 14.257812 -17.398438 10.925781 -22.628906 8.5625 -28.671875 C 6.195312 -34.722656 5.015625 -41.296875 5.015625 -48.390625 C 5.015625 -55.484375 6.195312 -62.050781 8.5625 -68.09375 C 10.925781 -74.132812 14.257812 -79.363281 18.5625 -83.78125 C 22.875 -88.195312 28.039062 -91.644531 34.0625 -94.125 C 40.082031 -96.601562 46.753906 -97.84375 54.078125 -97.84375 C 58.984375 -97.84375 63.597656 -97.269531 67.921875 -96.125 C 72.253906 -94.988281 76.226562 -93.382812 79.84375 -91.3125 C 83.457031 -89.238281 86.703125 -86.71875 89.578125 -83.75 C 92.453125 -80.78125 94.894531 -77.46875 96.90625 -73.8125 C 98.914062 -70.15625 100.441406 -66.1875 101.484375 -61.90625 C 102.535156 -57.625 103.0625 -53.117188 103.0625 -48.390625 Z M 84.65625 -48.390625 C 84.65625 -53.691406 83.941406 -58.453125 82.515625 -62.671875 C 81.085938 -66.890625 79.054688 -70.46875 76.421875 -73.40625 C 73.785156 -76.351562 70.582031 -78.609375 66.8125 -80.171875 C 63.050781 -81.734375 58.804688 -82.515625 54.078125 -82.515625 C 49.347656 -82.515625 45.097656 -81.734375 41.328125 -80.171875 C 37.554688 -78.609375 34.34375 -76.351562 31.6875 -73.40625 C 29.03125 -70.46875 26.988281 -66.890625 25.5625 -62.671875 C 24.132812 -58.453125 23.421875 -53.691406 23.421875 -48.390625 C 23.421875 -43.078125 24.132812 -38.3125 25.5625 -34.09375 C 26.988281 -29.875 29.03125 -26.300781 31.6875 -23.375 C 34.34375 -20.457031 37.554688 -18.21875 41.328125 -16.65625 C 45.097656 -15.101562 49.347656 -14.328125 54.078125 -14.328125 C 58.804688 -14.328125 63.050781 -15.101562 66.8125 -16.65625 C 70.582031 -18.21875 73.785156 -20.457031 76.421875 -23.375 C 79.054688 -26.300781 81.085938 -29.875 82.515625 -34.09375 C 83.941406 -38.3125 84.65625 -43.078125 84.65625 -48.390625 Z M 84.65625 -48.390625 "/></g></g></g><g fill="#000000" fill-opacity="1"><g transform="translate(232.222746, 242.2292)"><g><path d="M 77.234375 -22.828125 C 78.210938 -22.828125 79.082031 -22.445312 79.84375 -21.6875 L 86.9375 -13.984375 C 83.007812 -9.117188 78.175781 -5.390625 72.4375 -2.796875 C 66.707031 -0.210938 59.828125 1.078125 51.796875 1.078125 C 44.609375 1.078125 38.148438 -0.148438 32.421875 -2.609375 C 26.691406 -5.066406 21.796875 -8.476562 17.734375 -12.84375 C 13.671875 -17.21875 10.554688 -22.4375 8.390625 -28.5 C 6.234375 -34.570312 5.15625 -41.203125 5.15625 -48.390625 C 5.15625 -55.660156 6.3125 -62.316406 8.625 -68.359375 C 10.945312 -74.398438 14.21875 -79.609375 18.4375 -83.984375 C 22.65625 -88.359375 27.6875 -91.757812 33.53125 -94.1875 C 39.375 -96.625 45.84375 -97.84375 52.9375 -97.84375 C 59.988281 -97.84375 66.242188 -96.679688 71.703125 -94.359375 C 77.171875 -92.035156 81.820312 -89.003906 85.65625 -85.265625 L 79.640625 -76.890625 C 79.285156 -76.359375 78.828125 -75.890625 78.265625 -75.484375 C 77.703125 -75.085938 76.929688 -74.890625 75.953125 -74.890625 C 75.285156 -74.890625 74.59375 -75.078125 73.875 -75.453125 C 73.164062 -75.828125 72.382812 -76.296875 71.53125 -76.859375 C 70.6875 -77.421875 69.707031 -78.035156 68.59375 -78.703125 C 67.476562 -79.367188 66.179688 -79.976562 64.703125 -80.53125 C 63.234375 -81.09375 61.53125 -81.5625 59.59375 -81.9375 C 57.65625 -82.320312 55.414062 -82.515625 52.875 -82.515625 C 48.539062 -82.515625 44.578125 -81.742188 40.984375 -80.203125 C 37.398438 -78.660156 34.3125 -76.425781 31.71875 -73.5 C 29.132812 -70.582031 27.128906 -67.015625 25.703125 -62.796875 C 24.273438 -58.585938 23.5625 -53.785156 23.5625 -48.390625 C 23.5625 -42.941406 24.328125 -38.097656 25.859375 -33.859375 C 27.398438 -29.617188 29.488281 -26.050781 32.125 -23.15625 C 34.757812 -20.257812 37.859375 -18.039062 41.421875 -16.5 C 44.992188 -14.957031 48.832031 -14.1875 52.9375 -14.1875 C 55.382812 -14.1875 57.601562 -14.316406 59.59375 -14.578125 C 61.582031 -14.847656 63.410156 -15.273438 65.078125 -15.859375 C 66.753906 -16.441406 68.335938 -17.1875 69.828125 -18.09375 C 71.328125 -19.007812 72.8125 -20.140625 74.28125 -21.484375 C 74.726562 -21.878906 75.195312 -22.203125 75.6875 -22.453125 C 76.175781 -22.703125 76.691406 -22.828125 77.234375 -22.828125 Z M 77.234375 -22.828125 "/></g></g></g></svg>