<svg xmlns="http://www.w3.org/2000/svg" xmlns:xlink="http://www.w3.org/1999/xlink" width="500" zoomAndPan="magnify" viewBox="0 0 375 374.999991" height="500" preserveAspectRatio="xMidYMid meet" version="1.0"><defs><g/><clipPath id="9b27b4cf4e"><path d="M 6.707031 137.773438 L 370.714844 137.773438 L 370.714844 237.898438 L 6.707031 237.898438 Z M 6.707031 137.773438 " clip-rule="nonzero"/></clipPath><clipPath id="6551912566"><path d="M 16.539062 147.191406 L 188.632812 147.191406 L 188.632812 228.542969 L 16.539062 228.542969 Z M 16.539062 147.191406 " clip-rule="nonzero"/></clipPath></defs><g clip-path="url(#9b27b4cf4e)"><path stroke-linecap="butt" transform="matrix(1.043285, 0, 0, 1.041987, 6.706898, 137.772809)" fill-opacity="1" fill="#f7f9fa" fill-rule="nonzero" stroke-linejoin="miter" d="M 0.000127818 0.000602836 L 348.905457 0.000602836 L 348.905457 96.091022 L 0.000127818 96.091022 L 0.000127818 0.000602836 " stroke="#080c11" stroke-width="4.314456" stroke-opacity="1" stroke-miterlimit="4"/></g><g clip-path="url(#6551912566)"><path fill="#080c11" d="M 16.542969 147.191406 L 188.632812 147.191406 L 188.632812 228.542969 L 16.542969 228.542969 L 16.542969 147.191406 " fill-opacity="1" fill-rule="nonzero"/></g><g fill="#f7f9fa" fill-opacity="1"><g transform="translate(29.023285, 202.651614)"><g><path d="M 29.4375 -13.984375 C 29.4375 -11.890625 29.101562 -9.96875 28.4375 -8.21875 C 27.769531 -6.46875 26.832031 -4.957031 25.625 -3.6875 C 24.414062 -2.425781 22.960938 -1.445312 21.265625 -0.75 C 19.566406 -0.0507812 17.6875 0.296875 15.625 0.296875 C 13.570312 0.296875 11.695312 -0.0507812 10 -0.75 C 8.3125 -1.445312 6.859375 -2.425781 5.640625 -3.6875 C 4.429688 -4.957031 3.492188 -6.46875 2.828125 -8.21875 C 2.171875 -9.96875 1.84375 -11.890625 1.84375 -13.984375 C 1.84375 -16.078125 2.171875 -18 2.828125 -19.75 C 3.492188 -21.507812 4.429688 -23.019531 5.640625 -24.28125 C 6.859375 -25.550781 8.3125 -26.535156 10 -27.234375 C 11.695312 -27.941406 13.570312 -28.296875 15.625 -28.296875 C 17.6875 -28.296875 19.566406 -27.941406 21.265625 -27.234375 C 22.960938 -26.535156 24.414062 -25.550781 25.625 -24.28125 C 26.832031 -23.019531 27.769531 -21.507812 28.4375 -19.75 C 29.101562 -18 29.4375 -16.078125 29.4375 -13.984375 Z M 25.546875 -13.984375 C 25.546875 -15.703125 25.3125 -17.242188 24.84375 -18.609375 C 24.375 -19.984375 23.707031 -21.140625 22.84375 -22.078125 C 21.988281 -23.023438 20.945312 -23.75 19.71875 -24.25 C 18.5 -24.757812 17.132812 -25.015625 15.625 -25.015625 C 14.125 -25.015625 12.757812 -24.757812 11.53125 -24.25 C 10.3125 -23.75 9.269531 -23.023438 8.40625 -22.078125 C 7.539062 -21.140625 6.875 -19.984375 6.40625 -18.609375 C 5.9375 -17.242188 5.703125 -15.703125 5.703125 -13.984375 C 5.703125 -12.265625 5.9375 -10.722656 6.40625 -9.359375 C 6.875 -8.003906 7.539062 -6.851562 8.40625 -5.90625 C 9.269531 -4.96875 10.3125 -4.242188 11.53125 -3.734375 C 12.757812 -3.234375 14.125 -2.984375 15.625 -2.984375 C 17.132812 -2.984375 18.5 -3.234375 19.71875 -3.734375 C 20.945312 -4.242188 21.988281 -4.96875 22.84375 -5.90625 C 23.707031 -6.851562 24.375 -8.003906 24.84375 -9.359375 C 25.3125 -10.722656 25.546875 -12.265625 25.546875 -13.984375 Z M 25.546875 -13.984375 "/></g></g></g><g fill="#f7f9fa" fill-opacity="1"><g transform="translate(63.249567, 202.651614)"><g><path d="M 7.34375 -15.71875 L 8.765625 -15.71875 C 9.265625 -15.71875 9.660156 -15.78125 9.953125 -15.90625 C 10.253906 -16.03125 10.53125 -16.242188 10.78125 -16.546875 L 20.09375 -27.09375 C 20.351562 -27.425781 20.625 -27.65625 20.90625 -27.78125 C 21.195312 -27.914062 21.550781 -27.984375 21.96875 -27.984375 L 25.171875 -27.984375 L 14.515625 -15.9375 C 14.253906 -15.625 14.003906 -15.363281 13.765625 -15.15625 C 13.523438 -14.957031 13.265625 -14.796875 12.984375 -14.671875 C 13.335938 -14.554688 13.65625 -14.382812 13.9375 -14.15625 C 14.226562 -13.925781 14.507812 -13.628906 14.78125 -13.265625 L 25.921875 0 L 22.640625 0 C 22.390625 0 22.175781 -0.015625 22 -0.046875 C 21.820312 -0.078125 21.664062 -0.128906 21.53125 -0.203125 C 21.40625 -0.273438 21.296875 -0.359375 21.203125 -0.453125 C 21.109375 -0.554688 21.015625 -0.671875 20.921875 -0.796875 L 11.265625 -11.921875 C 11.003906 -12.242188 10.722656 -12.472656 10.421875 -12.609375 C 10.128906 -12.742188 9.675781 -12.8125 9.0625 -12.8125 L 7.34375 -12.8125 L 7.34375 0 L 3.578125 0 L 3.578125 -27.984375 L 7.34375 -27.984375 Z M 7.34375 -15.71875 "/></g></g></g><g fill="#f7f9fa" fill-opacity="1"><g transform="translate(92.087303, 202.651614)"><g><path d="M 29.4375 -13.984375 C 29.4375 -11.890625 29.101562 -9.96875 28.4375 -8.21875 C 27.769531 -6.46875 26.832031 -4.957031 25.625 -3.6875 C 24.414062 -2.425781 22.960938 -1.445312 21.265625 -0.75 C 19.566406 -0.0507812 17.6875 0.296875 15.625 0.296875 C 13.570312 0.296875 11.695312 -0.0507812 10 -0.75 C 8.3125 -1.445312 6.859375 -2.425781 5.640625 -3.6875 C 4.429688 -4.957031 3.492188 -6.46875 2.828125 -8.21875 C 2.171875 -9.96875 1.84375 -11.890625 1.84375 -13.984375 C 1.84375 -16.078125 2.171875 -18 2.828125 -19.75 C 3.492188 -21.507812 4.429688 -23.019531 5.640625 -24.28125 C 6.859375 -25.550781 8.3125 -26.535156 10 -27.234375 C 11.695312 -27.941406 13.570312 -28.296875 15.625 -28.296875 C 17.6875 -28.296875 19.566406 -27.941406 21.265625 -27.234375 C 22.960938 -26.535156 24.414062 -25.550781 25.625 -24.28125 C 26.832031 -23.019531 27.769531 -21.507812 28.4375 -19.75 C 29.101562 -18 29.4375 -16.078125 29.4375 -13.984375 Z M 25.546875 -13.984375 C 25.546875 -15.703125 25.3125 -17.242188 24.84375 -18.609375 C 24.375 -19.984375 23.707031 -21.140625 22.84375 -22.078125 C 21.988281 -23.023438 20.945312 -23.75 19.71875 -24.25 C 18.5 -24.757812 17.132812 -25.015625 15.625 -25.015625 C 14.125 -25.015625 12.757812 -24.757812 11.53125 -24.25 C 10.3125 -23.75 9.269531 -23.023438 8.40625 -22.078125 C 7.539062 -21.140625 6.875 -19.984375 6.40625 -18.609375 C 5.9375 -17.242188 5.703125 -15.703125 5.703125 -13.984375 C 5.703125 -12.265625 5.9375 -10.722656 6.40625 -9.359375 C 6.875 -8.003906 7.539062 -6.851562 8.40625 -5.90625 C 9.269531 -4.96875 10.3125 -4.242188 11.53125 -3.734375 C 12.757812 -3.234375 14.125 -2.984375 15.625 -2.984375 C 17.132812 -2.984375 18.5 -3.234375 19.71875 -3.734375 C 20.945312 -4.242188 21.988281 -4.96875 22.84375 -5.90625 C 23.707031 -6.851562 24.375 -8.003906 24.84375 -9.359375 C 25.3125 -10.722656 25.546875 -12.265625 25.546875 -13.984375 Z M 25.546875 -13.984375 "/></g></g></g><g fill="#f7f9fa" fill-opacity="1"><g transform="translate(126.313585, 202.651614)"><g><path d="M 14.078125 -11.15625 L 14.078125 0 L 10.296875 0 L 10.296875 -11.15625 L 0.046875 -27.984375 L 3.359375 -27.984375 C 3.703125 -27.984375 3.96875 -27.898438 4.15625 -27.734375 C 4.351562 -27.578125 4.523438 -27.367188 4.671875 -27.109375 L 11.078125 -16.234375 C 11.304688 -15.773438 11.519531 -15.347656 11.71875 -14.953125 C 11.914062 -14.554688 12.085938 -14.15625 12.234375 -13.75 C 12.367188 -14.15625 12.523438 -14.554688 12.703125 -14.953125 C 12.890625 -15.347656 13.097656 -15.773438 13.328125 -16.234375 L 19.703125 -27.109375 C 19.828125 -27.328125 19.992188 -27.523438 20.203125 -27.703125 C 20.410156 -27.890625 20.675781 -27.984375 21 -27.984375 L 24.34375 -27.984375 Z M 14.078125 -11.15625 "/></g></g></g><g fill="#f7f9fa" fill-opacity="1"><g transform="translate(153.647991, 202.651614)"><g><path d="M 20.84375 -3.09375 L 20.828125 0 L 3.578125 0 L 3.578125 -27.984375 L 20.828125 -27.984375 L 20.828125 -24.90625 L 7.359375 -24.90625 L 7.359375 -15.609375 L 18.265625 -15.609375 L 18.265625 -12.640625 L 7.359375 -12.640625 L 7.359375 -3.09375 Z M 20.84375 -3.09375 "/></g></g></g><g fill="#000000" fill-opacity="1"><g transform="translate(194.583487, 202.651614)"><g><path d="M 23.21875 -5.78125 C 23.425781 -5.78125 23.609375 -5.695312 23.765625 -5.53125 L 25.28125 -3.90625 C 24.132812 -2.582031 22.742188 -1.546875 21.109375 -0.796875 C 19.472656 -0.0546875 17.492188 0.3125 15.171875 0.3125 C 13.171875 0.3125 11.347656 -0.0351562 9.703125 -0.734375 C 8.066406 -1.429688 6.664062 -2.40625 5.5 -3.65625 C 4.34375 -4.914062 3.445312 -6.425781 2.8125 -8.1875 C 2.175781 -9.945312 1.859375 -11.878906 1.859375 -13.984375 C 1.859375 -16.097656 2.1875 -18.03125 2.84375 -19.78125 C 3.507812 -21.539062 4.445312 -23.050781 5.65625 -24.3125 C 6.863281 -25.582031 8.304688 -26.5625 9.984375 -27.25 C 11.660156 -27.945312 13.515625 -28.296875 15.546875 -28.296875 C 17.535156 -28.296875 19.289062 -27.976562 20.8125 -27.34375 C 22.34375 -26.707031 23.6875 -25.84375 24.84375 -24.75 L 23.59375 -23.015625 C 23.519531 -22.878906 23.421875 -22.769531 23.296875 -22.6875 C 23.171875 -22.601562 23.003906 -22.5625 22.796875 -22.5625 C 22.554688 -22.5625 22.265625 -22.6875 21.921875 -22.9375 C 21.585938 -23.195312 21.144531 -23.484375 20.59375 -23.796875 C 20.050781 -24.109375 19.367188 -24.390625 18.546875 -24.640625 C 17.734375 -24.890625 16.726562 -25.015625 15.53125 -25.015625 C 14.082031 -25.015625 12.757812 -24.765625 11.5625 -24.265625 C 10.363281 -23.765625 9.332031 -23.039062 8.46875 -22.09375 C 7.601562 -21.144531 6.925781 -19.984375 6.4375 -18.609375 C 5.957031 -17.242188 5.71875 -15.703125 5.71875 -13.984375 C 5.71875 -12.242188 5.96875 -10.6875 6.46875 -9.3125 C 6.976562 -7.945312 7.664062 -6.789062 8.53125 -5.84375 C 9.394531 -4.90625 10.414062 -4.1875 11.59375 -3.6875 C 12.769531 -3.195312 14.039062 -2.953125 15.40625 -2.953125 C 16.238281 -2.953125 16.988281 -3 17.65625 -3.09375 C 18.332031 -3.195312 18.953125 -3.351562 19.515625 -3.5625 C 20.085938 -3.769531 20.617188 -4.03125 21.109375 -4.34375 C 21.597656 -4.664062 22.082031 -5.046875 22.5625 -5.484375 C 22.78125 -5.679688 23 -5.78125 23.21875 -5.78125 Z M 23.21875 -5.78125 "/></g></g></g><g fill="#000000" fill-opacity="1"><g transform="translate(220.667173, 202.651614)"><g><path d="M 26.25 -27.984375 L 26.25 0 L 22.46875 0 L 22.46875 -12.734375 L 7.359375 -12.734375 L 7.359375 0 L 3.578125 0 L 3.578125 -27.984375 L 7.359375 -27.984375 L 7.359375 -15.515625 L 22.46875 -15.515625 L 22.46875 -27.984375 Z M 26.25 -27.984375 "/></g></g></g><g fill="#000000" fill-opacity="1"><g transform="translate(250.479885, 202.651614)"><g><path d="M 18.4375 -10.390625 L 14.046875 -21.78125 C 13.910156 -22.113281 13.769531 -22.503906 13.625 -22.953125 C 13.488281 -23.410156 13.351562 -23.890625 13.21875 -24.390625 C 12.945312 -23.335938 12.671875 -22.460938 12.390625 -21.765625 L 7.984375 -10.390625 Z M 26.328125 0 L 23.40625 0 C 23.0625 0 22.785156 -0.0820312 22.578125 -0.25 C 22.367188 -0.425781 22.210938 -0.644531 22.109375 -0.90625 L 19.5 -7.65625 L 6.9375 -7.65625 L 4.3125 -0.90625 C 4.238281 -0.664062 4.085938 -0.453125 3.859375 -0.265625 C 3.640625 -0.0859375 3.367188 0 3.046875 0 L 0.125 0 L 11.3125 -27.984375 L 15.140625 -27.984375 Z M 26.328125 0 "/></g></g></g><g fill="#000000" fill-opacity="1"><g transform="translate(276.915007, 202.651614)"><g><path d="M 11.328125 -14.4375 C 12.421875 -14.4375 13.382812 -14.566406 14.21875 -14.828125 C 15.0625 -15.097656 15.765625 -15.476562 16.328125 -15.96875 C 16.898438 -16.457031 17.328125 -17.039062 17.609375 -17.71875 C 17.898438 -18.394531 18.046875 -19.144531 18.046875 -19.96875 C 18.046875 -21.632812 17.5 -22.890625 16.40625 -23.734375 C 15.3125 -24.578125 13.671875 -25 11.484375 -25 L 7.34375 -25 L 7.34375 -14.4375 Z M 24.265625 0 L 20.90625 0 C 20.207031 0 19.695312 -0.265625 19.375 -0.796875 L 12.109375 -10.796875 C 11.890625 -11.109375 11.648438 -11.332031 11.390625 -11.46875 C 11.140625 -11.613281 10.75 -11.6875 10.21875 -11.6875 L 7.34375 -11.6875 L 7.34375 0 L 3.578125 0 L 3.578125 -27.984375 L 11.484375 -27.984375 C 13.253906 -27.984375 14.785156 -27.804688 16.078125 -27.453125 C 17.367188 -27.097656 18.429688 -26.582031 19.265625 -25.90625 C 20.109375 -25.226562 20.726562 -24.410156 21.125 -23.453125 C 21.53125 -22.492188 21.734375 -21.421875 21.734375 -20.234375 C 21.734375 -19.242188 21.578125 -18.316406 21.265625 -17.453125 C 20.953125 -16.597656 20.5 -15.828125 19.90625 -15.140625 C 19.320312 -14.460938 18.601562 -13.878906 17.75 -13.390625 C 16.894531 -12.910156 15.925781 -12.550781 14.84375 -12.3125 C 15.320312 -12.03125 15.738281 -11.628906 16.09375 -11.109375 Z M 24.265625 0 "/></g></g></g><g fill="#000000" fill-opacity="1"><g transform="translate(301.378228, 202.651614)"><g><path d="M 19.453125 -3.1875 L 19.453125 0 L 3.578125 0 L 3.578125 -27.984375 L 7.34375 -27.984375 L 7.34375 -3.1875 Z M 19.453125 -3.1875 "/></g></g></g><g fill="#000000" fill-opacity="1"><g transform="translate(321.429082, 202.651614)"><g><path d="M 20.84375 -3.09375 L 20.828125 0 L 3.578125 0 L 3.578125 -27.984375 L 20.828125 -27.984375 L 20.828125 -24.90625 L 7.359375 -24.90625 L 7.359375 -15.609375 L 18.265625 -15.609375 L 18.265625 -12.640625 L 7.359375 -12.640625 L 7.359375 -3.09375 Z M 20.84375 -3.09375 "/></g></g></g><g fill="#000000" fill-opacity="1"><g transform="translate(343.978971, 202.651614)"><g><path d="M 17.890625 -23.609375 C 17.773438 -23.421875 17.648438 -23.273438 17.515625 -23.171875 C 17.378906 -23.078125 17.210938 -23.03125 17.015625 -23.03125 C 16.796875 -23.03125 16.535156 -23.140625 16.234375 -23.359375 C 15.929688 -23.578125 15.554688 -23.820312 15.109375 -24.09375 C 14.660156 -24.363281 14.117188 -24.609375 13.484375 -24.828125 C 12.859375 -25.046875 12.09375 -25.15625 11.1875 -25.15625 C 10.34375 -25.15625 9.597656 -25.039062 8.953125 -24.8125 C 8.304688 -24.582031 7.765625 -24.269531 7.328125 -23.875 C 6.898438 -23.488281 6.570312 -23.03125 6.34375 -22.5 C 6.125 -21.976562 6.015625 -21.410156 6.015625 -20.796875 C 6.015625 -20.015625 6.207031 -19.367188 6.59375 -18.859375 C 6.976562 -18.347656 7.484375 -17.910156 8.109375 -17.546875 C 8.742188 -17.179688 9.460938 -16.863281 10.265625 -16.59375 C 11.066406 -16.320312 11.882812 -16.039062 12.71875 -15.75 C 13.5625 -15.46875 14.382812 -15.148438 15.1875 -14.796875 C 15.988281 -14.441406 16.703125 -13.988281 17.328125 -13.4375 C 17.960938 -12.894531 18.472656 -12.222656 18.859375 -11.421875 C 19.242188 -10.628906 19.4375 -9.65625 19.4375 -8.5 C 19.4375 -7.269531 19.226562 -6.117188 18.8125 -5.046875 C 18.394531 -3.972656 17.785156 -3.039062 16.984375 -2.25 C 16.179688 -1.457031 15.195312 -0.832031 14.03125 -0.375 C 12.863281 0.0820312 11.539062 0.3125 10.0625 0.3125 C 8.238281 0.3125 6.582031 -0.015625 5.09375 -0.671875 C 3.613281 -1.328125 2.347656 -2.21875 1.296875 -3.34375 L 2.390625 -5.140625 C 2.492188 -5.285156 2.617188 -5.40625 2.765625 -5.5 C 2.910156 -5.59375 3.078125 -5.640625 3.265625 -5.640625 C 3.429688 -5.640625 3.617188 -5.570312 3.828125 -5.4375 C 4.046875 -5.300781 4.289062 -5.128906 4.5625 -4.921875 C 4.84375 -4.710938 5.15625 -4.484375 5.5 -4.234375 C 5.851562 -3.992188 6.253906 -3.769531 6.703125 -3.5625 C 7.160156 -3.351562 7.675781 -3.175781 8.25 -3.03125 C 8.820312 -2.894531 9.460938 -2.828125 10.171875 -2.828125 C 11.078125 -2.828125 11.878906 -2.953125 12.578125 -3.203125 C 13.285156 -3.453125 13.878906 -3.800781 14.359375 -4.25 C 14.847656 -4.695312 15.222656 -5.234375 15.484375 -5.859375 C 15.742188 -6.484375 15.875 -7.179688 15.875 -7.953125 C 15.875 -8.796875 15.679688 -9.488281 15.296875 -10.03125 C 14.921875 -10.570312 14.421875 -11.023438 13.796875 -11.390625 C 13.171875 -11.753906 12.453125 -12.0625 11.640625 -12.3125 C 10.835938 -12.570312 10.019531 -12.832031 9.1875 -13.09375 C 8.351562 -13.363281 7.53125 -13.671875 6.71875 -14.015625 C 5.914062 -14.367188 5.203125 -14.828125 4.578125 -15.390625 C 3.953125 -15.953125 3.445312 -16.648438 3.0625 -17.484375 C 2.675781 -18.328125 2.484375 -19.367188 2.484375 -20.609375 C 2.484375 -21.597656 2.675781 -22.550781 3.0625 -23.46875 C 3.445312 -24.394531 4.003906 -25.21875 4.734375 -25.9375 C 5.472656 -26.65625 6.378906 -27.226562 7.453125 -27.65625 C 8.523438 -28.082031 9.757812 -28.296875 11.15625 -28.296875 C 12.71875 -28.296875 14.140625 -28.046875 15.421875 -27.546875 C 16.703125 -27.054688 17.832031 -26.34375 18.8125 -25.40625 Z M 17.890625 -23.609375 "/></g></g></g></svg>